{"title":"Valley.of.Love.2015.BRRip.x264.HORiZON-ArtSubs","uid":12873719,"size":1552325366,"categoryP":"video","categoryS":"movies","magnet":"?xt=urn:btih:709a473041bccb7e81bbed36f78a121e63809d92&amp;dn=Valley.of.Love.2015.BRRip.x264.HORiZON-ArtSubs&amp;tr=udp%3A%2F%2Ftracker.leechers-paradise.org%3A6969&amp;tr=udp%3A%2F%2Fzer0day.ch%3A1337&amp;tr=udp%3A%2F%2Fopen.demonii.com%3A1337&amp;tr=udp%3A%2F%2Ftracker.coppersurfer.tk%3A6969&amp;tr=udp%3A%2F%2Fexodus.desync.com%3A6969","seeders":6,"leechers":1,"uploader":"lletaif","files":1,"time":1448923127,"description":"General\r\nUnique ID                                : 288665333602306529293917962887123685163 (0xD92AEBC5F16BFF6DEB9EDFD4BC13CF2B)\r\nComplete name                            : E:Valley.of.Love.2015.BRRip.x264.HORiZON-ArtSubs.mkv\r\nFormat                                   : Matroska\r\nFormat version                           : Version 2\r\nFile size                                : 1.45 GiB\r\nDuration                                 : 1h 32mn\r\nOverall bit rate                         : 2 246 Kbps\r\nWriting application                      : HandBrake 0.9.5\r\nWriting library                          : libmkv 0.6.4.1\r\n\r\nVideo\r\nID                                       : 1\r\nFormat                                   : AVC\r\nFormat/Info                              : Advanced Video Codec\r\nFormat profile                           :   \r\nFormat settings, CABAC                   : Yes\r\nFormat settings, ReFrames                : 4 frames\r\nCodec ID                                 : V_MPEG4/ISO/AVC\r\nDuration                                 : 1h 32mn\r\nBit rate                                 : 1 633 Kbps\r\nWidth                                    : 1 280 pixels\r\nHeight                                   : 496 pixels\r\nDisplay aspect ratio                     : 2.538\r\nOriginal display aspect ratio            : 2.540\r\nFrame rate mode                          : Constant\r\nFrame rate                               : 23.976 (24000/1001) fps\r\nColor space                              : YUV\r\nChroma subsampling                       : 4:2:0\r\nBit depth                                : 8 bits\r\nScan type                                : Progressive\r\nBits/(Pixel*Frame)                       : 0.107\r\nStream size                              : 1.01 GiB (70%)\r\nWriting library                          : x264 core 112\r\nEncoding settings                        : cabac=1 / ref=3 / deblock=1:0:0 / analyse=0x3:0x113 / me=hex / subme=7 / psy=1 / psy_rd=1.00:0.00 / mixed_ref=1 / me_range=16 / chroma_me=1 / trellis=1 / 8x8dct=1 / cqm=0 / deadzone=21,11 / fast_pskip=1 / chroma_qp_offset=-2 / threads=6 / sliced_threads=0 / nr=0 / decimate=1 / interlaced=0 / constrained_intra=0 / bframes=3 / b_pyramid=2 / b_adapt=2 / b_bias=0 / direct=1 / weightb=1 / open_gop=0 / weightp=2 / keyint=240 / keyint_min=23 / scenecut=40 / intra_refresh=0 / rc_lookahead=50 / rc=abr / mbtree=1 / bitrate=1633 / ratetol=1.0 / qcomp=0.60 / qpmin=3 / qpmax=51 / qpstep=4 / ip_ratio=1.40 / aq=1:1.00\r\nLanguage                                 : English\r\nDefault                                  : Yes\r\nForced                                   : No\r\nColor range                              : Limited\r\nColor primaries                          : BT.709\r\nTransfer characteristics                 : BT.709\r\nMatrix coefficients                      : BT.709\r\n\r\nAudio\r\nID                                       : 2\r\nFormat                                   : AC-3\r\nFormat/Info                              : Audio Coding 3\r\nMode extension                           : CM (complete main)\r\nFormat settings, Endianness              : Big\r\nCodec ID                                 : A_AC3\r\nDuration                                 : 1h 32mn\r\nBit rate mode                            : Constant\r\nBit rate                                 : 640 Kbps\r\nChannel(s)                               : 6 channels\r\nChannel positions                        : Front: L C R, Side: L R, LFE\r\nSampling rate                            : 48.0 KHz\r\nFrame rate                               : 31.250 fps (1536 spf)\r\nCompression mode                         : Lossy\r\nStream size                              : 422 MiB (28%)\r\nLanguage                                 : French\r\nDefault                                  : Yes\r\nForced                                   : No\r\n\r\nText\r\nID                                       : 3\r\nFormat                                   : UTF-8\r\nCodec ID                                 : S_TEXT/UTF8\r\nCodec ID/Info                            : UTF-8 Plain Text\r\nLanguage                                 : French\r\nDefault                                  : No\r\nForced                                   : No\r\n\r\nMenu\r\n00:00:00.000                             : Chapter 1\r\n00:07:34.537                             : Chapter 2\r\n00:18:59.221                             : Chapter 3\r\n00:27:53.589                             : Chapter 4\r\n00:32:36.329                             : Chapter 5\r\n00:42:14.657                             : Chapter 6\r\n00:50:30.486                             : Chapter 7\r\n00:56:46.653                             : Chapter 8\r\n01:06:16.347                             : Chapter 9\r\n01:16:01.015                             : Chapter 10\r\n01:23:16.533                             : Chapter 11\r\n01:29:01.711                             : Chapter 12","torrent":{"xt":"urn:btih:709a473041bccb7e81bbed36f78a121e63809d92","amp;dn":"Valley.of.Love.2015.BRRip.x264.HORiZON-ArtSubs","amp;tr":["udp%3A%2F%2Ftracker.leechers-paradise.org%3A6969","udp%3A%2F%2Fzer0day.ch%3A1337","udp%3A%2F%2Fopen.demonii.com%3A1337","udp%3A%2F%2Ftracker.coppersurfer.tk%3A6969","udp%3A%2F%2Fexodus.desync.com%3A6969"],"infoHash":"709a473041bccb7e81bbed36f78a121e63809d92","infoHashBuffer":{"type":"Buffer","data":[112,154,71,48,65,188,203,126,129,187,237,54,247,138,18,30,99,128,157,146]},"announce":[],"urlList":[]}}